# This file uses centimeters as units for non-parametric coordinates.

mtllib painting.mtl
g default
v -3.249411 7.348846 0.536271
v -1.612758 7.348846 0.536271
v -3.249411 6.091541 0.536271
v -1.612758 6.091541 0.536271
v -3.249411 6.091541 0.584631
v -1.612758 6.091541 0.584631
v -3.249411 7.348846 0.584631
v -1.612758 7.348846 0.584631
vt 0.000000 1.000000
vt 1.000000 1.000000
vt 1.000000 0.000000
vt 0.000000 0.000000
vt 1.000000 0.000000
vt 0.000000 0.000000
vt 1.000000 1.000000
vt 0.000000 1.000000
vn 0.000000 -0.000000 -1.000000
vn 0.000000 -0.000000 -1.000000
vn 0.000000 -0.000000 -1.000000
vn 0.000000 -0.000000 -1.000000
vn 0.000000 -1.000000 0.000000
vn 0.000000 -1.000000 0.000000
vn 0.000000 -1.000000 0.000000
vn 0.000000 -1.000000 0.000000
vn 0.000000 0.000000 1.000000
vn 0.000000 0.000000 1.000000
vn 0.000000 0.000000 1.000000
vn 0.000000 0.000000 1.000000
vn 0.000000 1.000000 -0.000000
vn 0.000000 1.000000 -0.000000
vn 0.000000 1.000000 -0.000000
vn 0.000000 1.000000 -0.000000
vn 1.000000 0.000000 0.000000
vn 1.000000 0.000000 0.000000
vn 1.000000 0.000000 0.000000
vn 1.000000 0.000000 0.000000
vn -1.000000 -0.000000 0.000000
vn -1.000000 -0.000000 0.000000
vn -1.000000 -0.000000 0.000000
vn -1.000000 -0.000000 0.000000
s off
g polySurface488 pCube1
usemtl lambert70SG
f 1/1/1 2/2/2 4/3/3 3/4/4
f 3/4/5 4/3/6 6/5/7 5/6/8
f 5/6/9 6/5/10 8/7/11 7/8/12
f 7/8/13 8/7/14 2/2/15 1/1/16
f 2/2/17 8/7/18 6/5/19 4/3/20
f 7/8/21 1/1/22 3/4/23 5/6/24
g default
v 1.425722 7.520557 0.537949
v 2.948759 7.520557 0.537949
v 1.425722 6.350533 0.537949
v 2.948759 6.350533 0.537949
v 1.425722 6.350533 0.582952
v 2.948759 6.350533 0.582952
v 1.425722 7.520557 0.582952
v 2.948759 7.520557 0.582952
vt 0.000000 1.000000
vt 1.000000 1.000000
vt 1.000000 0.000000
vt 0.000000 0.000000
vt 1.000000 0.000000
vt 0.000000 0.000000
vt 1.000000 1.000000
vt 0.000000 1.000000
vn 0.000000 -0.000000 -1.000000
vn 0.000000 -0.000000 -1.000000
vn 0.000000 -0.000000 -1.000000
vn 0.000000 -0.000000 -1.000000
vn 0.000000 -1.000000 0.000000
vn 0.000000 -1.000000 0.000000
vn 0.000000 -1.000000 0.000000
vn 0.000000 -1.000000 0.000000
vn 0.000000 0.000000 1.000000
vn 0.000000 0.000000 1.000000
vn 0.000000 0.000000 1.000000
vn 0.000000 0.000000 1.000000
vn 0.000000 1.000000 -0.000000
vn 0.000000 1.000000 -0.000000
vn 0.000000 1.000000 -0.000000
vn 0.000000 1.000000 -0.000000
vn 1.000000 -0.000000 0.000000
vn 1.000000 -0.000000 0.000000
vn 1.000000 -0.000000 0.000000
vn 1.000000 -0.000000 0.000000
vn -1.000000 0.000000 0.000000
vn -1.000000 0.000000 0.000000
vn -1.000000 0.000000 0.000000
vn -1.000000 0.000000 0.000000
s off
g pCube1 polySurface490 polySurface487
usemtl lambert74SG
f 9/9/25 10/10/26 12/11/27 11/12/28
f 11/12/29 12/11/30 14/13/31 13/14/32
f 13/14/33 14/13/34 16/15/35 15/16/36
f 15/16/37 16/15/38 10/10/39 9/9/40
f 10/10/41 16/15/42 14/13/43 12/11/44
f 15/16/45 9/9/46 11/12/47 13/14/48
g default
v -1.281623 6.752980 0.537949
v 0.779905 6.752980 0.537949
v -1.281623 5.387218 0.537949
v 0.779905 5.387218 0.537949
v -1.281623 5.387218 0.582952
v 0.779905 5.387218 0.582952
v -1.281623 6.752980 0.582952
v 0.779905 6.752980 0.582952
vt 0.000000 1.000000
vt 1.000000 1.000000
vt 1.000000 0.000000
vt 0.000000 0.000000
vt 1.000000 0.000000
vt 0.000000 0.000000
vt 1.000000 1.000000
vt 0.000000 1.000000
vt 0.000000 1.000000
vt 1.000000 1.000000
vt 1.000000 -0.000000
vt 0.000000 -0.000000
vn 0.000000 -0.000000 -1.000000
vn 0.000000 -0.000000 -1.000000
vn 0.000000 -0.000000 -1.000000
vn 0.000000 -0.000000 -1.000000
vn 0.000000 -1.000000 0.000000
vn 0.000000 -1.000000 0.000000
vn 0.000000 -1.000000 0.000000
vn 0.000000 -1.000000 0.000000
vn 0.000000 0.000000 1.000000
vn 0.000000 0.000000 1.000000
vn 0.000000 0.000000 1.000000
vn 0.000000 0.000000 1.000000
vn 0.000000 1.000000 -0.000000
vn 0.000000 1.000000 -0.000000
vn 0.000000 1.000000 -0.000000
vn 0.000000 1.000000 -0.000000
vn 1.000000 0.000000 0.000000
vn 1.000000 0.000000 0.000000
vn 1.000000 0.000000 0.000000
vn 1.000000 0.000000 0.000000
vn -1.000000 -0.000000 0.000000
vn -1.000000 -0.000000 0.000000
vn -1.000000 -0.000000 0.000000
vn -1.000000 -0.000000 0.000000
s off
g pCube1 polySurface487 polySurface489
usemtl lambert72SG
f 17/25/49 18/26/50 20/27/51 19/28/52
f 19/20/53 20/19/54 22/21/55 21/22/56
f 21/22/57 22/21/58 24/23/59 23/24/60
f 23/24/61 24/23/62 18/18/63 17/17/64
f 18/18/65 24/23/66 22/21/67 20/19/68
f 23/24/69 17/17/70 19/20/71 21/22/72
